<svg width="292" height="48" viewBox="0 0 292 48" fill="none" xmlns="http://www.w3.org/2000/svg">
<path d="M27.2095 22.9126C26.6069 21.9373 26.5423 20.1979 26.5423 20.1979C26.6123 14.7671 26.3871 14.7386 26.7444 14.1968C24.7621 10.5954 20.6169 8.13175 15.9845 8.13175C11.363 8.13175 7.22594 10.5839 5.23875 14.1716C5.37638 14.3698 5.45763 14.6071 5.45763 14.866V20.1979C5.45763 20.1979 5.393 21.9371 4.7905 22.9126L4.79069 22.9123L4.78863 31.8979C6.37482 33.4883 8.62769 34.5889 10.9669 35.0569H21.0021C23.3566 34.5858 25.6218 33.4738 27.2113 31.8666L27.2093 22.9123L27.2095 22.9126Z" fill="#7C6359"/>
<path d="M10.8756 33.733C9.75326 32.2297 9.10944 30.4476 9.03126 28.6029C8.91788 25.9281 9.46807 23.2507 10.6533 20.7968C10.5829 14.89 14.5234 10.0114 19.7574 8.69243C18.5639 8.32887 17.2938 8.13181 15.9846 8.13181C11.3631 8.13181 7.22607 10.584 5.23888 14.1717C5.37651 14.3699 5.45776 14.6071 5.45776 14.8661V20.1979C5.45776 20.1979 5.39313 21.9372 4.79063 22.9126L4.79082 22.9123L4.78876 31.898C6.37494 33.4884 8.62782 34.5889 10.9671 35.057H12.0423C11.6205 34.6492 11.2297 34.2074 10.8756 33.733Z" fill="#705850"/>
<path d="M20.6579 13.2163C19.7538 13.2163 18.9218 13.5739 18.2839 14.1659L17.7524 14.6591C16.7554 15.5841 15.2138 15.5841 14.2167 14.6591C13.8944 14.4246 12.7666 12.8649 10.5941 13.2849C7.00344 13.9789 5.39662 19.3316 7.62231 22.8705C7.93319 23.3654 7.94469 24.009 7.64525 24.5115C6.03787 27.2076 6.29294 30.5417 8.47281 33.0604C12.1249 37.2787 19.3585 37.4088 23.2181 33.3664C25.7016 30.7666 25.9602 27.2581 24.3239 24.5114C24.0245 24.0089 24.036 23.3653 24.3469 22.8704C26.7979 18.9704 24.5785 13.2163 20.6579 13.2163Z" fill="#F2C29E"/>
<path d="M11.6536 33.0604C9.47369 30.5418 9.21863 27.2076 10.826 24.5115C11.1254 24.009 11.1139 23.3654 10.803 22.8705C8.77938 19.6528 9.92425 14.9363 12.8476 13.5848C12.2792 13.2926 11.5347 13.1031 10.594 13.285C7.00331 13.9789 5.3965 19.3316 7.62219 22.8706C7.93306 23.3654 7.94456 24.0091 7.64519 24.5116C6.03788 27.2076 6.29294 30.5418 8.47281 33.0605C10.7011 35.6342 14.2624 36.6859 17.5773 36.1968C15.3165 35.8641 13.1745 34.8171 11.6536 33.0604Z" fill="#EAB794"/>
<path d="M11.664 28.7302C13.4728 32.2111 18.4142 32.3019 20.3756 28.9641C20.6061 28.5717 20.3244 28.0771 19.8693 28.0771H12.0611C11.7258 28.0771 11.5094 28.4327 11.664 28.7302Z" fill="#656566"/>
<path d="M13.2738 28.7302C13.1191 28.4327 13.3356 28.0772 13.6708 28.0772H12.0611C11.7258 28.0772 11.5094 28.4328 11.664 28.7302C12.7326 30.7867 14.8948 31.6596 16.8898 31.3416C15.4279 31.1087 14.0571 30.2376 13.2738 28.7302Z" fill="#4F4F51"/>
<path d="M16.4719 29.7185C15.6393 30.0613 15.3807 29.3778 13.9509 29.4455C13.4138 29.471 12.9066 29.6144 12.4514 29.8483C14.3381 31.8909 17.701 31.9376 19.6611 29.9067C18.6339 29.3354 17.4621 29.3108 16.4719 29.7185Z" fill="#ED694A"/>
<path d="M13.7365 29.4624C13.2789 29.5115 12.8458 29.6457 12.4519 29.8481C13.6014 31.0806 15.2954 31.6013 16.8884 31.3412C15.6827 31.1489 14.5395 30.522 13.7365 29.4624Z" fill="#D8553A"/>
<path d="M15.1513 26.026C14.8846 26.026 14.6683 25.8098 14.6683 25.5431V25.3412C14.6683 25.0744 14.8846 24.8582 15.1513 24.8582C15.4179 24.8582 15.6342 25.0744 15.6342 25.3412V25.5431C15.6342 25.8098 15.418 26.026 15.1513 26.026Z" fill="#CC9D72"/>
<path d="M16.8178 26.026C16.5511 26.026 16.3348 25.8098 16.3348 25.5431V25.3412C16.3348 25.0744 16.5511 24.8582 16.8178 24.8582C17.0844 24.8582 17.3007 25.0744 17.3007 25.3412V25.5431C17.3007 25.8098 17.0845 26.026 16.8178 26.026Z" fill="#CC9D72"/>
<path d="M31.9953 36.8756L31.1469 22.1628C30.1997 23.444 28.5646 23.6407 27.7033 23.2964C27.4492 23.1949 27.2448 22.9853 27.0804 22.7191L27.0837 36.9681C27.0379 37.4517 27.4459 37.8681 27.9658 37.8681H31.0314C31.6035 37.8681 32.0509 37.4074 31.9953 36.8756Z" fill="#755E56"/>
<path d="M28.6935 36.9681L28.6904 23.4442C28.3157 23.4585 27.9719 23.4038 27.7033 23.2964C27.4492 23.1949 27.2449 22.9853 27.0804 22.7191L27.0837 36.9681C27.0379 37.4518 27.4459 37.8681 27.9658 37.8681H29.5756C29.0557 37.8681 28.6476 37.4518 28.6935 36.9681Z" fill="#68504A"/>
<path d="M0.004689 36.8756L0.853064 22.1628C1.80025 23.444 3.43538 23.6407 4.29669 23.2964C4.55088 23.1949 4.75519 22.9853 4.91956 22.7191L4.91625 36.9681C4.96206 37.4518 4.55406 37.8681 4.03413 37.8681H0.968502C0.396439 37.8681 -0.0509985 37.4074 0.004689 36.8756Z" fill="#755E56"/>
<path d="M1.73938 36.8756L2.52125 23.3151C1.91438 23.1386 1.30525 22.7746 0.853001 22.1628L0.00468899 36.8756C-0.0509985 37.4074 0.396439 37.8681 0.968564 37.8681H2.70331C2.13119 37.8681 1.68375 37.4074 1.73938 36.8756Z" fill="#68504A"/>
<path d="M26.4135 20.1979C26.4135 20.1979 26.5179 23.0159 27.7033 23.4897C29.1413 24.0644 32.7373 23.1327 31.6849 18.1601C31.0117 14.9791 29.5238 13.9709 28.1434 13.6275C27.2702 13.4103 26.4135 14.0239 26.4135 14.866V20.1979Z" fill="#CC9D72"/>
<path d="M29.3113 23.4897C28.1259 23.0159 28.0215 20.1979 28.0215 20.1979V14.8661C28.0215 14.4047 28.279 14.0122 28.6553 13.7871C28.4842 13.7221 28.313 13.6697 28.1435 13.6276C27.2703 13.4104 26.4136 14.024 26.4136 14.8661V20.198C26.4136 20.198 26.518 23.016 27.7034 23.4898C28.1388 23.6638 28.7721 23.6993 29.4143 23.5267C29.379 23.5151 29.3444 23.5029 29.3113 23.4897Z" fill="#BF8C62"/>
<path d="M29.1521 14.0159C28.8183 13.8334 28.4777 13.7107 28.1434 13.6276C27.8668 13.5587 27.5919 13.5735 27.3453 13.6524C27.3526 13.6558 27.3596 13.6596 27.3672 13.6627C28.3847 14.0824 29.0691 15.6161 29.4016 18.2212C29.4327 18.4651 29.6405 18.6431 29.8801 18.6431C30.1706 18.6431 30.3966 18.3886 30.3597 18.099C30.1256 16.2647 29.7317 14.922 29.1521 14.0159Z" fill="#B27F59"/>
<path d="M5.58644 20.1979C5.58644 20.1979 5.482 23.0159 4.29662 23.4897C2.85862 24.0644 -0.737377 23.1327 0.314998 18.1601C0.988186 14.9791 2.47612 13.9709 3.8565 13.6275C4.72969 13.4103 5.58644 14.0239 5.58644 14.866V20.1979Z" fill="#CC9D72"/>
<path d="M1.92475 17.9585C2.44725 15.3986 3.46063 14.1963 4.53356 13.6197C4.3195 13.5713 4.08869 13.5698 3.8565 13.6276C2.47613 13.9709 0.988188 14.9791 0.315001 18.1602C-0.714874 23.0265 2.70694 24.0226 4.20131 23.5242C2.72088 23.1146 1.19006 21.5577 1.92475 17.9585Z" fill="#BF8C62"/>
<path d="M4.6328 13.6627C4.6403 13.6596 4.6473 13.6559 4.65468 13.6524C4.40805 13.5737 4.13318 13.5589 3.85655 13.6276C3.5223 13.7108 3.1818 13.8334 2.84799 14.016C2.2683 14.922 1.87443 16.2647 1.6403 18.0991C1.60655 18.3636 1.79368 18.6055 2.05818 18.6393C2.32374 18.6731 2.56468 18.4851 2.59836 18.2214C2.9308 15.6161 3.6153 14.0824 4.6328 13.6627Z" fill="#B27F59"/>
<path d="M19.1687 23.4643C19.6729 23.4643 20.0816 22.9455 20.0816 22.3055C20.0816 21.6655 19.6729 21.1467 19.1687 21.1467C18.6645 21.1467 18.2558 21.6655 18.2558 22.3055C18.2558 22.9455 18.6645 23.4643 19.1687 23.4643Z" fill="#656566"/>
<path d="M18.9919 21.9035C18.9919 21.6155 19.0752 21.3526 19.2122 21.1498C19.1977 21.1489 19.1832 21.147 19.1686 21.147C18.6644 21.147 18.2556 21.6658 18.2556 22.3058C18.2556 22.9458 18.6644 23.4646 19.1686 23.4646C19.4459 23.4646 19.6937 23.3071 19.8612 23.0594C19.3774 23.0303 18.9919 22.5247 18.9919 21.9035Z" fill="#4F4F51"/>
<path d="M12.8313 23.4643C13.3355 23.4643 13.7442 22.9455 13.7442 22.3055C13.7442 21.6655 13.3355 21.1467 12.8313 21.1467C12.3271 21.1467 11.9184 21.6655 11.9184 22.3055C11.9184 22.9455 12.3271 23.4643 12.8313 23.4643Z" fill="#656566"/>
<path d="M12.6549 21.9035C12.6549 21.6155 12.7383 21.3526 12.8753 21.1498C12.8607 21.1489 12.8463 21.147 12.8316 21.147C12.3274 21.147 11.9186 21.6658 11.9186 22.3058C11.9186 22.9458 12.3274 23.4646 12.8316 23.4646C13.1089 23.4646 13.3568 23.3071 13.5242 23.0594C13.0404 23.0303 12.6549 22.5247 12.6549 21.9035Z" fill="#4F4F51"/>
<path d="M59.104 19.768C59.104 21.0693 58.8053 22.264 58.208 23.352C57.6107 24.4187 56.6933 25.2827 55.456 25.944C54.2187 26.6053 52.6827 26.936 50.848 26.936H47.456V35H41.984V12.536H50.848C52.64 12.536 54.1547 12.8453 55.392 13.464C56.6293 14.0827 57.5573 14.936 58.176 16.024C58.7947 17.112 59.104 18.36 59.104 19.768ZM50.432 22.584C51.4773 22.584 52.256 22.3387 52.768 21.848C53.28 21.3573 53.536 20.664 53.536 19.768C53.536 18.872 53.28 18.1787 52.768 17.688C52.256 17.1973 51.4773 16.952 50.432 16.952H47.456V22.584H50.432ZM77.2488 35L72.5768 26.52H71.2648V35H65.7928V12.536H74.9768C76.7474 12.536 78.2514 12.8453 79.4888 13.464C80.7474 14.0827 81.6861 14.936 82.3048 16.024C82.9234 17.0907 83.2328 18.2853 83.2328 19.608C83.2328 21.1013 82.8061 22.4347 81.9528 23.608C81.1208 24.7813 79.8834 25.6133 78.2408 26.104L83.4248 35H77.2488ZM71.2648 22.648H74.6568C75.6594 22.648 76.4061 22.4027 76.8968 21.912C77.4088 21.4213 77.6648 20.728 77.6648 19.832C77.6648 18.9787 77.4088 18.3067 76.8968 17.816C76.4061 17.3253 75.6594 17.08 74.6568 17.08H71.2648V22.648ZM101.132 35.224C99.0198 35.224 97.0784 34.7333 95.3078 33.752C93.5584 32.7707 92.1611 31.4053 91.1158 29.656C90.0918 27.8853 89.5798 25.9013 89.5798 23.704C89.5798 21.5067 90.0918 19.5333 91.1158 17.784C92.1611 16.0347 93.5584 14.6693 95.3078 13.688C97.0784 12.7067 99.0198 12.216 101.132 12.216C103.244 12.216 105.174 12.7067 106.924 13.688C108.694 14.6693 110.081 16.0347 111.084 17.784C112.108 19.5333 112.62 21.5067 112.62 23.704C112.62 25.9013 112.108 27.8853 111.084 29.656C110.06 31.4053 108.673 32.7707 106.924 33.752C105.174 34.7333 103.244 35.224 101.132 35.224ZM101.132 30.232C102.924 30.232 104.353 29.6347 105.42 28.44C106.508 27.2453 107.052 25.6667 107.052 23.704C107.052 21.72 106.508 20.1413 105.42 18.968C104.353 17.7733 102.924 17.176 101.132 17.176C99.3184 17.176 97.8678 17.7627 96.7798 18.936C95.7131 20.1093 95.1798 21.6987 95.1798 23.704C95.1798 25.688 95.7131 27.2773 96.7798 28.472C97.8678 29.6453 99.3184 30.232 101.132 30.232ZM134.128 12.536V16.92H124.976V21.656H131.824V25.912H124.976V35H119.504V12.536H134.128ZM154.828 31.032H146.444L145.1 35H139.372L147.5 12.536H153.836L161.964 35H156.172L154.828 31.032ZM153.42 26.808L150.636 18.584L147.884 26.808H153.42ZM188.374 35H182.902L173.75 21.144V35H168.278V12.536H173.75L182.902 26.456V12.536H188.374V35ZM201.652 12.536V35H196.18V12.536H201.652ZM224.082 12.536V16.92H214.93V21.656H221.778V25.912H214.93V35H209.458V12.536H224.082ZM242.254 35L237.582 26.52H236.27V35H230.798V12.536H239.982C241.752 12.536 243.256 12.8453 244.494 13.464C245.752 14.0827 246.691 14.936 247.31 16.024C247.928 17.0907 248.238 18.2853 248.238 19.608C248.238 21.1013 247.811 22.4347 246.958 23.608C246.126 24.7813 244.888 25.6133 243.246 26.104L248.43 35H242.254ZM236.27 22.648H239.662C240.664 22.648 241.411 22.4027 241.902 21.912C242.414 21.4213 242.67 20.728 242.67 19.832C242.67 18.9787 242.414 18.3067 241.902 17.816C241.411 17.3253 240.664 17.08 239.662 17.08H236.27V22.648ZM260.985 16.92V21.464H268.313V25.688H260.985V30.616H269.273V35H255.513V12.536H269.273V16.92H260.985ZM282.137 16.92V21.464H289.465V25.688H282.137V30.616H290.425V35H276.665V12.536H290.425V16.92H282.137Z" fill="#4D4D4D"/>
</svg>
